<?xml version="1.0" standalone="no"?><!DOCTYPE svg PUBLIC "-//W3C//DTD SVG 1.1//EN" "http://www.w3.org/Graphics/SVG/1.1/DTD/svg11.dtd"><svg t="1635335781881" class="icon" viewBox="0 0 1024 1024" version="1.1" xmlns="http://www.w3.org/2000/svg" p-id="3325" xmlns:xlink="http://www.w3.org/1999/xlink" width="200" height="200"><defs><style type="text/css"></style></defs><path d="M958.433833 209.326074H190.395971a31.493209 31.493209 0 0 0-24.593069 11.822233 31.528001 31.528001 0 0 0-6.136755 26.616141l68.582868 303.850726c0 0.210801-0.064468 0.394995-0.064468 0.619099 0 3.409649 0.895391 6.565519 2.324947 9.398025l37.866346 167.811648c3.268433 14.356957 16.034153 24.573626 30.7595 24.573626h550.57959c14.724323 0 27.489019-10.215645 30.74415-24.573626l108.704577-481.679498c2.1121-9.341744-0.154519-19.121461-6.143918-26.616141a31.446137 31.446137 0 0 0-24.585906-11.822233zM464.023408 691.006596l-14.371283-117.778215h97.917927V691.006596h-83.546644z m-19.521573-159.794061l-12.295-100.63173H547.570052v100.63173H444.501835z m-178.956454-100.63173H389.889115l12.300116 100.63173H288.26478l-22.719399-100.63173z m161.533677-42.001519l-14.188112-116.228932H547.570052V388.579286H427.079058z m-56.515042-116.228932l14.195276 116.228932h-128.711197l-26.228308-116.228932h140.744229zM297.740576 573.228381h109.563129l14.39175 117.778215h-97.368413L297.740576 573.228381zM824.523228 691.006596h-234.950633V573.228381H732.614142c11.595059 0 21.007411-9.399049 21.007411-20.995132 0-11.610409-9.412352-21.021737-21.007411-21.021737H589.572595v-100.63173h185.197585c11.610409 0 21.008434-9.411328 21.008435-21.007411s-9.399049-20.994108-21.008435-20.994108h-185.197585V272.350354h329.437422L824.523228 691.006596zM416.244314 804.190175c-57.980413 0-105.153711 47.173298-105.153712 105.139385 0 57.97939 47.173298 105.139385 105.153712 105.139385 57.966087 0 105.117896-47.159995 105.117896-105.139385 0-57.966087-47.151809-105.139385-105.117896-105.139385z m0 147.283143c-23.242307 0-42.136595-18.895311-42.136595-42.143758 0-23.234121 18.894288-42.114082 42.136595-42.114083 23.213655 0 42.115106 18.879962 42.115106 42.114083 0 23.248447-18.901451 42.143758-42.115106 42.143758zM732.614142 804.190175c-57.980413 0-105.168038 47.173298-105.168037 105.139385 0 57.97939 47.187624 105.139385 105.168037 105.139385 57.97939 0 105.138362-47.159995 105.138362-105.139385 0-57.966087-47.158972-105.139385-105.138362-105.139385z m0 147.283143c-23.235144 0-42.143758-18.895311-42.143758-42.143758 0-23.234121 18.908614-42.114082 42.143758-42.114083 23.233097 0 42.128409 18.879962 42.128409 42.114083 0 23.248447-18.895311 42.143758-42.128409 42.143758zM985.500228 104.679922H193.69408l-15.928752-70.590591c-0.176008-0.774641-0.535188-1.494024-0.760315-2.281968-0.360203-1.140984-0.662078-2.310621-1.142008-3.409649-0.415461-0.916881-0.943486-1.747803-1.429556-2.621706-0.513699-0.901531-0.957813-1.846041-1.562585-2.67594-0.572027-0.860599-1.27606-1.606588-1.923812-2.366903-0.676404-0.775665-1.296526-1.578958-2.023072-2.281968-0.654915-0.648775-1.39374-1.156334-2.10596-1.733477-0.866739-0.71836-1.704825-1.451045-2.669801-2.071168-0.662078-0.435928-1.3876-0.760315-2.078331-1.126658-1.091866-0.606819-2.155079-1.212615-3.331878-1.690498-0.726546-0.281409-1.494024-0.450254-2.247176-0.69073-1.191126-0.380669-2.346436-0.774641-3.607147-1.014095-0.951673-0.183171-1.943255-0.211824-2.930743-0.310061-0.986465-0.084934-1.922789-0.281409-2.922557-0.281409H38.478283c-17.401287 0-31.498325 14.103178-31.498325 31.518792 0 17.401287 14.097038 31.491162 31.498325 31.491162h83.349146l15.943079 70.604916a30.145517 30.145517 0 0 0 1.689475 5.28332c0.057305 0.141216 0.148379 0.268106 0.22615 0.422624a31.014302 31.014302 0 0 0 2.529608 4.677524c0.323364 0.46458 0.704033 0.887205 1.035584 1.351784 0.796131 1.071399 1.612727 2.127449 2.542911 3.099589 0.493233 0.47993 1.014094 0.930183 1.521653 1.40909 0.880042 0.803294 1.788736 1.577935 2.760875 2.268665 0.613982 0.451277 1.233082 0.845249 1.881856 1.240244a32.025327 32.025327 0 0 0 3.049447 1.677196c0.676404 0.33769 1.352808 0.647752 2.065027 0.915857 1.217732 0.465603 2.46514 0.81762 3.726874 1.156334 0.605796 0.141216 1.1768 0.352017 1.775433 0.46458 1.929952 0.36532 3.888556 0.605796 5.904465 0.605796H985.500228c17.401287 0 31.519815-14.103178 31.519814-31.504465 0-17.41766-14.118527-31.536187-31.519814-31.536187z" p-id="3326"></path></svg>